<?xml version="1.0" encoding="utf-8"?>
<!DOCTYPE svg PUBLIC "-//W3C//DTD SVG 1.1//EN" "http://www.w3.org/Graphics/SVG/1.1/DTD/svg11.dtd">
<svg version="1.1" id="Calque_1" xmlns="http://www.w3.org/2000/svg" xmlns:xlink="http://www.w3.org/1999/xlink" x="0px" y="0px"
	 width="346px" height="184px" viewBox="277.5 -247.5 346 184" enable-background="new 277.5 -247.5 346 184" xml:space="preserve">
<g>
	<rect x="588.5" y="-247.5" width="35" height="184"/>
	<path d="M357.5-63.5c40,0.00049,80-29.99951,80-90c0-12.25,0-39,0-39l82,129h34v-184h-34v120l-77-120h-40c0,0,0,74,0,96
		c0,72-90,72-90,0c0-21,0-96,0-96h-35c0,0,0,68,0,94c0,25.35645,0,75.16699,0,90H357.5z"/>
</g>
</svg>
